<svg xmlns="http://www.w3.org/2000/svg" xmlns:xlink="http://www.w3.org/1999/xlink" width="500" zoomAndPan="magnify" viewBox="0 0 375 374.999991" height="500" preserveAspectRatio="xMidYMid meet" version="1.0"><defs><g/><clipPath id="142706b292"><path d="M 12 148.597656 L 106.484375 148.597656 L 106.484375 223 L 12 223 Z M 12 148.597656 " clip-rule="nonzero"/></clipPath><clipPath id="de58eeaf06"><path d="M 37.492188 174.230469 L 50.398438 174.230469 L 50.398438 187.132812 L 37.492188 187.132812 Z M 37.492188 174.230469 " clip-rule="nonzero"/></clipPath><clipPath id="5cb372558f"><path d="M 43.945312 174.230469 C 40.382812 174.230469 37.492188 177.117188 37.492188 180.679688 C 37.492188 184.242188 40.382812 187.132812 43.945312 187.132812 C 47.507812 187.132812 50.398438 184.242188 50.398438 180.679688 C 50.398438 177.117188 47.507812 174.230469 43.945312 174.230469 Z M 43.945312 174.230469 " clip-rule="nonzero"/></clipPath><clipPath id="059c8b541b"><path d="M 68.667969 174.230469 L 81.570312 174.230469 L 81.570312 187.132812 L 68.667969 187.132812 Z M 68.667969 174.230469 " clip-rule="nonzero"/></clipPath><clipPath id="6170eca6a1"><path d="M 75.121094 174.230469 C 71.554688 174.230469 68.667969 177.117188 68.667969 180.679688 C 68.667969 184.242188 71.554688 187.132812 75.121094 187.132812 C 78.683594 187.132812 81.570312 184.242188 81.570312 180.679688 C 81.570312 177.117188 78.683594 174.230469 75.121094 174.230469 Z M 75.121094 174.230469 " clip-rule="nonzero"/></clipPath><clipPath id="e0981421a6"><path d="M 38.824219 195.535156 L 79.46875 195.535156 L 79.46875 213.695312 L 38.824219 213.695312 Z M 38.824219 195.535156 " clip-rule="nonzero"/></clipPath><clipPath id="5251950c58"><path d="M 52.371094 212.695312 C 54.457031 213.296875 56.824219 213.695312 59.148438 213.695312 C 61.472656 213.695312 63.707031 213.355469 65.769531 212.75 C 65.8125 212.730469 65.855469 212.730469 65.902344 212.710938 C 73.640625 210.292969 79.339844 203.910156 79.449219 196.992188 L 79.449219 195.535156 L 38.824219 195.535156 L 38.824219 196.992188 C 38.933594 203.949219 44.546875 210.332031 52.371094 212.695312 Z M 52.371094 212.695312 " clip-rule="nonzero"/></clipPath></defs><g clip-path="url(#142706b292)"><path fill="#7f56d9" d="M 42.394531 148.601562 L 41.71875 149.675781 C 39.296875 153.660156 36.878906 156.578125 34.464844 158.429688 C 33.308594 159.507812 29.890625 161.261719 24.207031 163.683594 C 21.890625 165.019531 20.527344 165.925781 20.125 166.398438 C 17.203125 169.292969 15.402344 171.980469 14.722656 174.457031 C 12.472656 180.59375 11.726562 187.292969 12.484375 194.554688 C 13.363281 201.484375 15.953125 207.042969 20.257812 211.234375 C 28.695312 219.625 43.660156 223.234375 65.148438 222.066406 C 75.761719 221.589844 83.417969 220.40625 88.117188 218.523438 C 94.113281 216.570312 98.75 213.003906 102.027344 207.824219 C 102.78125 207.105469 103.929688 204.15625 105.46875 198.972656 C 106.441406 194.617188 106.683594 190.207031 106.203125 185.738281 C 105.460938 178.90625 103.164062 173.359375 99.308594 169.101562 C 96.230469 165.296875 90.714844 162.25 82.757812 159.972656 C 79.109375 159.125 75.847656 158.640625 72.976562 158.515625 C 71.84375 158.269531 66.097656 158.378906 55.738281 158.84375 C 53.851562 158.820312 52.226562 158.566406 50.867188 158.074219 C 47.449219 156.714844 44.625 153.558594 42.394531 148.601562 " fill-opacity="1" fill-rule="nonzero"/></g><g clip-path="url(#de58eeaf06)"><g clip-path="url(#5cb372558f)"><path fill="#ffffff" d="M 37.492188 174.230469 L 50.398438 174.230469 L 50.398438 187.132812 L 37.492188 187.132812 Z M 37.492188 174.230469 " fill-opacity="1" fill-rule="nonzero"/></g></g><g clip-path="url(#059c8b541b)"><g clip-path="url(#6170eca6a1)"><path fill="#ffffff" d="M 68.667969 174.230469 L 81.570312 174.230469 L 81.570312 187.132812 L 68.667969 187.132812 Z M 68.667969 174.230469 " fill-opacity="1" fill-rule="nonzero"/></g></g><g clip-path="url(#e0981421a6)"><g clip-path="url(#5251950c58)"><path fill="#ffffff" d="M 38.824219 195.535156 L 79.46875 195.535156 L 79.46875 213.695312 L 38.824219 213.695312 Z M 38.824219 195.535156 " fill-opacity="1" fill-rule="nonzero"/></g></g><g fill="#000000" fill-opacity="1"><g transform="translate(123.513337, 211.353659)"><g><path d="M 53.078125 -43.484375 L 53.078125 0 L 42.484375 0 L 42.484375 -26.078125 L 32.765625 0 L 24.21875 0 L 14.4375 -26.140625 L 14.4375 0 L 3.84375 0 L 3.84375 -43.484375 L 16.34375 -43.484375 L 28.546875 -13.375 L 40.625 -43.484375 Z M 53.078125 -43.484375 "/></g></g></g><g fill="#000000" fill-opacity="1"><g transform="translate(180.368413, 211.353659)"><g><path d="M 36.984375 -29.484375 C 36.984375 -26.960938 36.40625 -24.660156 35.25 -22.578125 C 34.09375 -20.492188 32.316406 -18.8125 29.921875 -17.53125 C 27.523438 -16.25 24.550781 -15.609375 21 -15.609375 L 14.4375 -15.609375 L 14.4375 0 L 3.84375 0 L 3.84375 -43.484375 L 21 -43.484375 C 24.46875 -43.484375 27.398438 -42.882812 29.796875 -41.6875 C 32.191406 -40.488281 33.988281 -38.832031 35.1875 -36.71875 C 36.382812 -34.613281 36.984375 -32.203125 36.984375 -29.484375 Z M 20.1875 -24.03125 C 22.21875 -24.03125 23.726562 -24.503906 24.71875 -25.453125 C 25.707031 -26.398438 26.203125 -27.742188 26.203125 -29.484375 C 26.203125 -31.210938 25.707031 -32.550781 24.71875 -33.5 C 23.726562 -34.457031 22.21875 -34.9375 20.1875 -34.9375 L 14.4375 -34.9375 L 14.4375 -24.03125 Z M 20.1875 -24.03125 "/></g></g></g><g fill="#000000" fill-opacity="1"><g transform="translate(219.015003, 211.353659)"><g><path d="M 30.15625 -22.296875 C 32.675781 -21.765625 34.703125 -20.515625 36.234375 -18.546875 C 37.765625 -16.585938 38.53125 -14.347656 38.53125 -11.828125 C 38.53125 -8.191406 37.257812 -5.3125 34.71875 -3.1875 C 32.175781 -1.0625 28.632812 0 24.09375 0 L 3.84375 0 L 3.84375 -43.484375 L 23.40625 -43.484375 C 27.832031 -43.484375 31.289062 -42.46875 33.78125 -40.4375 C 36.28125 -38.414062 37.53125 -35.671875 37.53125 -32.203125 C 37.53125 -29.648438 36.859375 -27.523438 35.515625 -25.828125 C 34.179688 -24.128906 32.394531 -22.953125 30.15625 -22.296875 Z M 14.4375 -25.890625 L 21.375 -25.890625 C 23.101562 -25.890625 24.429688 -26.269531 25.359375 -27.03125 C 26.285156 -27.800781 26.75 -28.925781 26.75 -30.40625 C 26.75 -31.894531 26.285156 -33.03125 25.359375 -33.8125 C 24.429688 -34.601562 23.101562 -35 21.375 -35 L 14.4375 -35 Z M 22.234375 -8.546875 C 24.015625 -8.546875 25.390625 -8.945312 26.359375 -9.75 C 27.328125 -10.5625 27.8125 -11.726562 27.8125 -13.25 C 27.8125 -14.78125 27.304688 -15.976562 26.296875 -16.84375 C 25.285156 -17.707031 23.890625 -18.140625 22.109375 -18.140625 L 14.4375 -18.140625 L 14.4375 -8.546875 Z M 22.234375 -8.546875 "/></g></g></g><g fill="#000000" fill-opacity="1"><g transform="translate(259.829264, 211.353659)"><g><path d="M 24.40625 0.4375 C 20.3125 0.4375 16.5625 -0.507812 13.15625 -2.40625 C 9.75 -4.3125 7.046875 -6.96875 5.046875 -10.375 C 3.046875 -13.78125 2.046875 -17.609375 2.046875 -21.859375 C 2.046875 -26.117188 3.046875 -29.941406 5.046875 -33.328125 C 7.046875 -36.710938 9.75 -39.351562 13.15625 -41.25 C 16.5625 -43.144531 20.3125 -44.09375 24.40625 -44.09375 C 28.488281 -44.09375 32.234375 -43.144531 35.640625 -41.25 C 39.046875 -39.351562 41.726562 -36.710938 43.6875 -33.328125 C 45.65625 -29.941406 46.640625 -26.117188 46.640625 -21.859375 C 46.640625 -17.609375 45.644531 -13.78125 43.65625 -10.375 C 41.675781 -6.96875 38.992188 -4.3125 35.609375 -2.40625 C 32.222656 -0.507812 28.488281 0.4375 24.40625 0.4375 Z M 24.40625 -9.234375 C 27.875 -9.234375 30.648438 -10.390625 32.734375 -12.703125 C 34.816406 -15.015625 35.859375 -18.066406 35.859375 -21.859375 C 35.859375 -25.703125 34.816406 -28.769531 32.734375 -31.0625 C 30.648438 -33.351562 27.875 -34.5 24.40625 -34.5 C 20.894531 -34.5 18.097656 -33.363281 16.015625 -31.09375 C 13.929688 -28.820312 12.890625 -25.742188 12.890625 -21.859375 C 12.890625 -18.023438 13.929688 -14.960938 16.015625 -12.671875 C 18.097656 -10.378906 20.894531 -9.234375 24.40625 -9.234375 Z M 24.40625 -9.234375 "/></g></g></g><g fill="#000000" fill-opacity="1"><g transform="translate(308.509094, 211.353659)"><g><path d="M 35.125 -43.484375 L 35.125 -35 L 23.59375 -35 L 23.59375 0 L 13 0 L 13 -35 L 1.484375 -35 L 1.484375 -43.484375 Z M 35.125 -43.484375 "/></g></g></g><g fill="#7f56d9" fill-opacity="1"><g transform="translate(345.114871, 211.353659)"><g><path d="M 8.796875 0.5 C 6.941406 0.5 5.425781 -0.046875 4.25 -1.140625 C 3.070312 -2.234375 2.484375 -3.585938 2.484375 -5.203125 C 2.484375 -6.859375 3.070312 -8.242188 4.25 -9.359375 C 5.425781 -10.472656 6.941406 -11.03125 8.796875 -11.03125 C 10.609375 -11.03125 12.101562 -10.472656 13.28125 -9.359375 C 14.457031 -8.242188 15.046875 -6.859375 15.046875 -5.203125 C 15.046875 -3.585938 14.457031 -2.234375 13.28125 -1.140625 C 12.101562 -0.046875 10.609375 0.5 8.796875 0.5 Z M 8.796875 0.5 "/></g></g></g></svg>